<svg width="97" height="33" viewBox="0 0 97 33" fill="none" xmlns="http://www.w3.org/2000/svg">
<path d="M30.5342 0.137085C30.2434 0.0401513 29.9526 -0.0567826 29.6618 0.0401513C27.5292 0.234019 25.2997 0.427887 23.1672 0.815622C16.4788 1.68803 9.88726 2.85123 3.29575 4.11137C2.13255 4.40218 1.06627 4.59604 0 4.98378C0.290802 4.98378 0.581603 5.08071 0.775471 5.08071C4.94363 5.27458 9.01485 5.66232 13.0861 6.24392C19.4837 7.21326 25.6875 8.57033 31.8913 10.3151C41.6816 12.9324 51.1811 16.6158 60.5837 20.4932L66.3997 23.0135C66.3028 22.9165 66.2058 22.8196 66.1089 22.8196C54.283 15.2588 42.3601 7.69793 30.5342 0.137085ZM47.1099 7.01939C47.3037 7.11633 47.3037 7.21326 47.4007 7.21326L59.0327 15.3557C59.2266 15.5496 59.3235 15.4526 59.5174 15.3557C60.6806 14.7741 61.8438 14.1925 62.9101 13.6109C72.4096 9.055 82.1999 5.56538 92.378 2.94817C93.832 2.56043 95.3829 2.26963 96.9339 1.8819C80.1643 2.07576 63.5886 3.82057 47.1099 7.01939ZM36.7379 14.4833C36.641 14.3864 36.641 14.3864 36.5441 14.3864L28.1108 12.06C27.917 11.963 27.7231 12.06 27.6262 12.06C23.3611 13.417 19.1929 15.0649 15.2186 17.0036C10.0811 19.6208 5.4283 22.8196 0.872405 26.2123C0.775471 26.3092 0.678537 26.3092 0.775471 26.5031C5.23443 27.2786 9.69339 28.054 14.2493 28.8295C14.5401 28.8295 14.734 28.8295 15.0248 28.5387C15.9941 27.4724 17.0604 26.5031 18.1266 25.5338C23.2641 21.2687 29.0802 17.876 35.187 15.1618C35.6717 14.871 36.1563 14.6772 36.7379 14.4833ZM42.2632 16.7128C38.095 18.5545 34.0238 20.8809 30.2434 23.4982C27.7231 25.3399 25.2028 27.1816 23.1672 29.5081C22.9733 29.7019 22.6825 29.8958 22.5856 30.1866C22.6825 30.1866 22.6825 30.2835 22.6825 30.2835L36.4471 32.6099C36.641 32.7069 36.8349 32.6099 36.9318 32.4161C37.2226 32.0283 37.5134 31.7375 37.8042 31.3498C40.9061 27.7632 44.5896 24.7583 48.4669 22.1411C49.7271 21.3656 50.9872 20.5901 52.2474 19.7177C49.0485 18.6515 46.0436 17.5852 42.9417 16.5189C42.6509 16.5189 42.457 16.6158 42.2632 16.7128Z" fill="black"/>
</svg>
